<svg width="38" height="38" viewBox="0 0 38 38" fill="none" xmlns="http://www.w3.org/2000/svg">
<path d="M19.0187 14.4949C17.9091 14.4949 16.87 14.9254 16.0833 15.7121C15.3003 16.4988 14.8661 17.5379 14.8661 18.6474C14.8661 19.757 15.3003 20.7961 16.0833 21.5828C16.87 22.3658 17.9091 22.8 19.0187 22.8C20.1282 22.8 21.1673 22.3658 21.954 21.5828C22.737 20.7961 23.1712 19.757 23.1712 18.6474C23.1712 17.5379 22.737 16.4988 21.954 15.7121C21.5698 15.3249 21.1124 15.0179 20.6085 14.8089C20.1046 14.6 19.5642 14.4932 19.0187 14.4949ZM34.3189 23.2342L31.8919 21.1597C32.0069 20.4547 32.0663 19.7347 32.0663 19.0185C32.0663 18.3023 32.0069 17.5787 31.8919 16.8773L34.3189 14.8029C34.5022 14.646 34.6334 14.4369 34.6951 14.2036C34.7567 13.9702 34.7459 13.7237 34.664 13.4967L34.6306 13.4002C33.9627 11.5324 32.9619 9.80114 31.6767 8.29021L31.6099 8.21228C31.4538 8.02878 31.2458 7.89687 31.0133 7.83394C30.7808 7.77101 30.5346 7.78 30.3073 7.85974L27.2941 8.9322C26.1808 8.01931 24.9413 7.29939 23.598 6.79841L23.0153 3.64783C22.9714 3.41048 22.8563 3.19213 22.6852 3.02178C22.5142 2.85143 22.2954 2.73715 22.0579 2.69412L21.9577 2.67556C20.028 2.32673 17.9944 2.32673 16.0648 2.67556L15.9646 2.69412C15.727 2.73715 15.5083 2.85143 15.3372 3.02178C15.1662 3.19213 15.0511 3.41048 15.0071 3.64783L14.4208 6.81326C13.0902 7.31823 11.8506 8.0364 10.7507 8.93962L7.71515 7.85974C7.48791 7.77937 7.2416 7.77005 7.00894 7.83302C6.77628 7.89599 6.56829 8.02827 6.41261 8.21228L6.34581 8.29021C5.06291 9.80275 4.06237 11.5336 3.39191 13.4002L3.35851 13.4967C3.19152 13.9605 3.32882 14.4801 3.70363 14.8029L6.16027 16.8996C6.04523 17.5972 5.98956 18.3097 5.98956 19.0148C5.98956 19.7273 6.04523 20.4398 6.16027 21.1301L3.71105 23.2267C3.52771 23.3837 3.39649 23.5927 3.33485 23.8261C3.2732 24.0594 3.28404 24.306 3.36593 24.533L3.39933 24.6295C4.07101 26.4961 5.06183 28.2217 6.35323 29.7394L6.42003 29.8174C6.57609 30.0009 6.78409 30.1328 7.01661 30.1957C7.24913 30.2586 7.49526 30.2496 7.72257 30.1699L10.7581 29.09C11.864 29.9992 13.096 30.7191 14.4282 31.2164L15.0146 34.3818C15.0585 34.6192 15.1737 34.8375 15.3447 35.0079C15.5157 35.1782 15.7345 35.2925 15.972 35.3355L16.0722 35.3541C18.0208 35.7048 20.0165 35.7048 21.9651 35.3541L22.0653 35.3355C22.3029 35.2925 22.5217 35.1782 22.6927 35.0079C22.8637 34.8375 22.9788 34.6192 23.0228 34.3818L23.6054 31.2312C24.9487 30.7265 26.1882 30.0103 27.3015 29.0974L30.3148 30.1699C30.542 30.2503 30.7883 30.2596 31.021 30.1966C31.2536 30.1336 31.4616 30.0014 31.6173 29.8174L31.6841 29.7394C32.9755 28.2142 33.9663 26.4961 34.638 24.6295L34.6714 24.533C34.831 24.0728 34.6937 23.557 34.3189 23.2342ZM19.0187 25.1713C15.4153 25.1713 12.4948 22.2508 12.4948 18.6474C12.4948 15.0441 15.4153 12.1236 19.0187 12.1236C22.622 12.1236 25.5425 15.0441 25.5425 18.6474C25.5425 22.2508 22.622 25.1713 19.0187 25.1713Z" fill="black"/>
</svg>
